<svg viewBox="0 0 24.00 24.00" xmlns="http://www.w3.org/2000/svg" width="18" height="18" fill="#fde047"><g id="SVGRepo_bgCarrier" stroke-width="0"></g><g id="SVGRepo_tracerCarrier" stroke-linecap="round" stroke-linejoin="round"></g><g id="SVGRepo_iconCarrier"> <path stroke="#000000" stroke-linecap="round" stroke-linejoin="round" stroke-width="0.72" d="M10 18v-.107c0-.795-.496-1.488-1.117-1.984a5 5 0 1 1 6.235 0c-.622.497-1.118 1.189-1.118 1.984V18m-4 0v2a1 1 0 0 0 1 1h2a1 1 0 0 0 1-1v-2m-4 0h4m6-6h1M4 12H3m9-8V3m5.657 3.343.707-.707m-12.02.707-.708-.707M12 15v-2"></path> </g></svg>